<svg xmlns="http://www.w3.org/2000/svg" viewBox="0 0 32 23">
  <defs>
    <style>
      .cls-1 {
        fill: #8a8a8a;
        fill-rule: evenodd;
      }
    </style>
  </defs>
  <title>Asset 1</title>
  <g id="Layer_2" data-name="Layer 2">
    <g id="Layer_1-2" data-name="Layer 1">
      <path class="cls-1" d="M26,10A4.51,4.51,0,0,0,18.7,7,7,7,0,0,0,5,9a6.62,6.62,0,0,0,.09,1.1A4,4,0,0,0,6,18h6v2H6A6,6,0,0,1,3,8.8,9,9,0,0,1,19.66,4.27,6.21,6.21,0,0,1,21.5,4a6.52,6.52,0,0,1,6.09,4.21A6,6,0,0,1,26,20H20V18h6a4,4,0,0,0,0-8ZM16,9l5,6H18v8H14V15H11Z"/>
    </g>
  </g>
</svg>
