<svg xmlns="http://www.w3.org/2000/svg" viewBox="0 0 79 53">
  <defs>
    <style>
      .cls-1 {
        fill: #ff63fa;
      }
    </style>
  </defs>
  <title>Asset 1</title>
  <g id="Layer_2" data-name="Layer 2">
    <g id="Icons_BabyCrawling" data-name="Icons BabyCrawling">
      <circle class="cls-1" cx="66.5" cy="12.5" r="12.5"/>
      <path class="cls-1" d="M9,37a6,6,0,0,0,1.6,4.1C8.2,39.9,7,37.8,7,34c0-7.4,6.8-8.4,16-9V38.8L21,35c-1.3-2.6-3.2-4-6-4A6,6,0,0,0,9,37ZM0,49a4,4,0,0,0,4,4H24a4,4,0,0,0,3.6-2.3,4.22,4.22,0,0,0-.5-4.2L25.7,44l-.8-1.5,24.3-6.7.9,4.9a3.33,3.33,0,0,0,1.1,2.1l9,9a4,4,0,1,0,5.6-5.7L57.7,38,54.9,22.2A4,4,0,0,0,51,18.9l-28,2c-7.8.5-20,1.3-20,13,0,6.3,2.8,9.4,6.7,11H4A4.17,4.17,0,0,0,0,49Z"/>
    </g>
  </g>
</svg>
